<svg width="1920" height="1080" viewBox="0 0 1920 1080" fill="none" xmlns="http://www.w3.org/2000/svg">
<g clip-path="url(#clip0_545_3170)">
<rect width="1920" height="1080" fill="white"/>
<rect width="1920" height="1080" fill="#3F5B6B"/>
<g clip-path="url(#clip1_545_3170)">
<path d="M1194 604.003C1194 624.404 1187.86 644.327 1176.37 661.149C1164.88 677.97 1148.6 690.903 1129.66 698.243C1110.71 705.583 1090 706.987 1070.25 702.27C1050.5 697.552 1032.63 686.935 1019 671.815C1040.02 677.939 1062.45 677.007 1082.89 669.16C1103.32 661.313 1120.66 646.98 1132.26 628.335C1143.85 609.691 1149.08 587.754 1147.14 565.854C1145.21 543.953 1136.21 523.286 1121.53 506.987C1142.43 513.093 1160.8 525.853 1173.87 543.348C1186.94 560.843 1194 582.128 1194 604.003Z" fill="#EDEDED"/>
</g>
<path d="M903.687 429.581C906.783 433.288 899.446 445.094 892.698 452.015C881.247 463.732 866.553 466.583 859.147 467.422C862.934 465.638 867.971 462.55 871.635 457.128C876.489 449.915 874.489 445.217 878.526 439.143C884.967 429.502 900.455 425.729 903.687 429.581Z" fill="#C4C4C4"/>
<path d="M741.874 662.61C738.353 576.928 772.532 494.824 838.068 438.982C844.827 433.222 851.83 427.765 859.078 422.61L872.627 443.64C857.29 452.494 842.89 462.88 829.649 474.637C775.943 521.806 745.279 591.592 741.874 662.61Z" fill="url(#paint0_linear_545_3170)"/>
<path d="M831.769 425.264C834.939 422.531 839.809 419.185 846.252 418.042C850.705 417.253 853.785 417.893 856.729 418.514C859.444 419.087 862.047 419.63 865.486 419.062C876.91 417.127 886.656 404.512 884.451 399.993C883.863 398.796 882.388 398.074 880.363 397.729C875.072 396.819 866.052 398.482 859.488 400.907C844.14 406.594 835.56 418.858 831.769 425.264Z" fill="#C4C4C4"/>
<path d="M856.745 418.503C855.861 419.585 855.065 420.584 854.373 421.491L871.799 448.325C872.909 448.061 874.15 447.748 875.493 447.373C885.662 444.545 895.319 440.11 904.094 434.237C913.102 428.199 921.037 420.701 927.571 412.055C934.18 403.321 939.305 393.564 942.741 383.18C931.862 382.093 920.869 382.804 910.206 385.284C899.65 387.736 889.572 391.936 880.393 397.709C871.453 403.339 863.469 410.359 856.745 418.503Z" fill="#EDEDED"/>
<path d="M910.177 385.257C912.235 390.211 914.745 394.965 917.674 399.459C920.588 403.962 923.91 408.188 927.598 412.084C934.233 403.329 939.376 393.545 942.819 383.13C931.903 382.038 920.874 382.757 910.177 385.257Z" fill="#D8D8D8"/>
<path d="M910.177 385.257L910.198 385.289C912.251 390.232 914.754 394.975 917.674 399.459C920.58 403.952 923.893 408.168 927.57 412.057L927.591 412.089C934.229 403.333 939.375 393.547 942.819 383.13C931.903 382.038 920.874 382.757 910.177 385.257Z" fill="#DB3B18"/>
<path d="M891.643 416.363C889.304 412.762 890.342 407.936 893.962 405.586C897.582 403.235 902.413 404.249 904.752 407.85C907.09 411.452 906.052 416.277 902.432 418.628C898.812 420.978 893.982 419.964 891.643 416.363Z" fill="#4CBCE2"/>
<path opacity="0.1" d="M831.772 425.264C834.942 422.53 839.812 419.185 846.255 418.042C850.707 417.252 853.787 417.892 856.732 418.513C855.847 419.595 855.052 420.594 854.36 421.501L857.593 426.479C860.627 431.111 859.627 429.611 862.627 434.111L863.627 435.61L942.82 383.129C931.905 382.037 920.875 382.756 910.178 385.257L910.199 385.289C899.643 387.741 889.566 391.941 880.387 397.714C875.096 396.804 866.076 398.467 859.512 400.893C844.143 406.593 835.562 418.857 831.772 425.264Z" fill="black"/>
</g>
<defs>
<linearGradient id="paint0_linear_545_3170" x1="844.627" y1="434.61" x2="741.627" y2="652.61" gradientUnits="userSpaceOnUse">
<stop stop-color="#E68B21"/>
<stop offset="0.348958" stop-color="#F7C515" stop-opacity="0.651042"/>
<stop offset="0.640625" stop-color="#F0B41A" stop-opacity="0.390625"/>
<stop offset="1" stop-color="#FFA800" stop-opacity="0"/>
</linearGradient>
<clipPath id="clip0_545_3170">
<rect width="1920" height="1080" fill="white"/>
</clipPath>
<clipPath id="clip1_545_3170">
<rect width="175" height="198" fill="white" transform="translate(1019 507)"/>
</clipPath>
</defs>
</svg>
