<svg width="1920" height="1080" viewBox="0 0 1920 1080" fill="none" xmlns="http://www.w3.org/2000/svg">
<g clip-path="url(#clip0_545_2956)">
<rect width="1920" height="1080" fill="white"/>
<rect width="1920" height="1080" fill="#9CBCCD"/>
<g clip-path="url(#clip1_545_2956)">
<path d="M1321.89 605.14C1321.91 608.3 1320.85 611.373 1318.89 613.85H1088.57C1087.19 607.73 1084.44 602.002 1080.52 597.101C1076.61 592.199 1071.63 588.25 1065.97 585.554C1060.3 582.857 1054.1 581.483 1047.82 581.534C1041.55 581.585 1035.37 583.061 1029.75 585.85C1028.41 578.349 1025.55 571.202 1021.34 564.85C1022.33 564.703 1023.34 564.629 1024.34 564.63H1024.89C1023.96 559.243 1024.21 553.717 1025.64 548.439C1027.07 543.161 1029.64 538.26 1033.16 534.08C1036.69 529.894 1041.09 526.527 1046.06 524.217C1051.02 521.906 1056.43 520.706 1061.91 520.7C1063.04 520.7 1064.18 520.76 1065.26 520.85C1069.17 509.919 1076.66 500.626 1086.5 494.472C1096.35 488.318 1107.98 485.662 1119.52 486.934C1131.06 488.205 1141.84 493.33 1150.11 501.48C1158.38 509.63 1163.66 520.329 1165.1 531.85C1168.95 531.102 1172.92 531.177 1176.75 532.072C1180.57 532.966 1184.16 534.66 1187.28 537.04C1192.46 533.527 1198.44 531.363 1204.67 530.746C1210.9 530.129 1217.19 531.078 1222.96 533.507C1228.73 535.936 1233.8 539.767 1237.71 544.654C1241.63 549.541 1244.26 555.328 1245.37 561.49C1249.59 559.405 1254.27 558.429 1258.97 558.653C1263.67 558.877 1268.24 560.295 1272.24 562.772C1276.24 565.249 1279.55 568.704 1281.84 572.812C1284.14 576.919 1285.35 581.544 1285.37 586.25C1285.37 587.424 1285.29 588.596 1285.15 589.76C1285.72 589.692 1286.3 589.658 1286.88 589.66C1289.06 589.654 1291.21 590.095 1293.21 590.955C1295.21 591.815 1297.01 593.076 1298.5 594.66C1300.52 592.838 1303.02 591.641 1305.7 591.216C1308.39 590.791 1311.13 591.157 1313.61 592.268C1316.09 593.379 1318.2 595.188 1319.67 597.473C1321.14 599.759 1321.91 602.423 1321.89 605.14Z" fill="url(#paint0_linear_545_2956)"/>
<path d="M1055.39 517.5C1055.43 542.436 1046.25 566.505 1029.61 585.08C1027.83 575.969 1023.82 567.44 1017.94 560.256C1012.06 553.073 1004.49 547.458 995.913 543.915C987.333 540.371 978.008 539.01 968.773 539.951C959.537 540.893 950.679 544.108 942.99 549.31C935.768 543.767 926.914 540.771 917.81 540.79C915.148 540.793 912.493 541.047 909.88 541.55C908.126 527.529 902.544 514.261 893.747 503.203C884.95 492.144 873.277 483.722 860.01 478.86C868.956 457.124 885.168 439.167 905.879 428.052C926.589 416.937 950.516 413.354 973.574 417.914C996.632 422.474 1017.39 434.895 1032.31 453.057C1047.23 471.218 1055.39 493.995 1055.39 517.5Z" fill="#E8B147"/>
<path d="M1144 651.1C1144.01 655.823 1142.41 660.408 1139.46 664.1H554.04C551.48 659.825 550.527 654.778 551.352 649.864C552.177 644.95 554.727 640.491 558.543 637.288C562.36 634.084 567.193 632.346 572.176 632.385C577.159 632.424 581.964 634.237 585.73 637.5C589.78 633.467 594.813 630.561 600.33 629.07C600.022 627.008 599.868 624.925 599.87 622.84C599.881 613.903 602.785 605.21 608.146 598.06C613.508 590.91 621.04 585.688 629.616 583.174C638.192 580.659 647.351 580.988 655.724 584.111C664.098 587.235 671.235 592.984 676.07 600.5C679.13 597.349 682.793 594.846 686.841 593.14C690.888 591.434 695.238 590.56 699.63 590.57H700.46C699.078 582.516 699.472 574.258 701.613 566.373C703.755 558.487 707.592 551.164 712.858 544.916C718.124 538.668 724.69 533.644 732.099 530.198C739.507 526.751 747.579 524.963 755.75 524.96C757.44 524.96 759.15 525.04 760.75 525.18C766.589 508.849 777.762 494.962 792.465 485.763C807.168 476.564 824.543 472.59 841.783 474.482C859.024 476.374 875.123 484.023 887.48 496.192C899.838 508.361 907.733 524.341 909.89 541.55C912.504 541.047 915.159 540.793 917.82 540.79C926.924 540.771 935.778 543.767 943 549.31C950.74 544.062 959.668 540.83 968.974 539.908C978.28 538.986 987.669 540.404 996.288 544.032C1004.91 547.66 1012.48 553.383 1018.33 560.683C1024.17 567.982 1028.1 576.626 1029.76 585.83C1036.46 582.485 1043.94 581.022 1051.41 581.598C1058.88 582.175 1066.05 584.768 1072.16 589.102C1078.27 593.436 1083.08 599.348 1086.09 606.206C1089.1 613.063 1090.19 620.61 1089.25 628.04C1090.11 627.943 1090.97 627.897 1091.84 627.9C1095.09 627.902 1098.31 628.572 1101.3 629.869C1104.28 631.166 1106.97 633.062 1109.19 635.44C1112.22 632.791 1115.95 631.068 1119.93 630.478C1123.91 629.888 1127.98 630.455 1131.65 632.112C1135.32 633.768 1138.44 636.444 1140.63 639.821C1142.82 643.199 1143.99 647.134 1144.01 651.16L1144 651.1Z" fill="url(#paint1_linear_545_2956)"/>
</g>
</g>
<defs>
<linearGradient id="paint0_linear_545_2956" x1="1171.62" y1="635.67" x2="1171.62" y2="490.99" gradientUnits="userSpaceOnUse">
<stop stop-color="#E2E2E1" stop-opacity="0"/>
<stop offset="1" stop-color="#E2E2E1"/>
</linearGradient>
<linearGradient id="paint1_linear_545_2956" x1="847.5" y1="441.52" x2="847.5" y2="657.6" gradientUnits="userSpaceOnUse">
<stop stop-color="#E2E2E1"/>
<stop offset="1" stop-color="#E2E2E1" stop-opacity="0"/>
</linearGradient>
<clipPath id="clip0_545_2956">
<rect width="1920" height="1080" fill="white"/>
</clipPath>
<clipPath id="clip1_545_2956">
<rect width="770.89" height="248.11" fill="white" transform="translate(551 416)"/>
</clipPath>
</defs>
</svg>
