<svg width="1920" height="1080" viewBox="0 0 1920 1080" fill="none" xmlns="http://www.w3.org/2000/svg">
<g clip-path="url(#clip0_545_3029)">
<rect width="1920" height="1080" fill="white"/>
<rect width="1920" height="1080" fill="#1D4256"/>
<path d="M1091.94 478.65C1091.94 483.054 1091.7 487.454 1091.21 491.83C1089.57 492.624 1087.98 493.505 1086.44 494.47C1076.6 500.627 1069.12 509.92 1065.2 520.85C1064.12 520.76 1062.98 520.7 1061.85 520.7C1056.38 520.697 1050.97 521.891 1046.01 524.197C1041.05 526.504 1036.65 529.868 1033.13 534.053C1029.6 538.238 1027.03 543.144 1025.6 548.426C1024.17 553.708 1023.92 559.238 1024.85 564.63H1024.3C1023.3 564.627 1022.29 564.701 1021.3 564.85C1020.36 563.417 1019.36 562.027 1018.3 560.68C1012.47 553.387 1004.9 547.665 996.3 544.03C993.42 542.82 990.443 541.857 987.4 541.15C1001.02 531.31 1012.42 518.711 1020.85 504.173C1029.29 489.635 1034.56 473.484 1036.33 456.772C1038.11 440.06 1036.34 423.162 1031.15 407.178C1025.96 391.193 1017.46 376.481 1006.21 364C1030.98 371.265 1052.72 386.366 1068.18 407.038C1083.64 427.71 1091.98 452.838 1091.94 478.65Z" fill="#969696"/>
<path d="M1321.83 605.16C1321.85 608.32 1320.79 611.392 1318.83 613.87H1088.49C1087.11 607.75 1084.36 602.024 1080.44 597.123C1076.52 592.223 1071.55 588.275 1065.88 585.579C1060.22 582.883 1054.02 581.508 1047.74 581.558C1041.47 581.608 1035.29 583.083 1029.67 585.87C1028.33 578.369 1025.47 571.221 1021.26 564.87C1022.25 564.721 1023.26 564.648 1024.26 564.65H1024.81C1023.89 559.259 1024.15 553.733 1025.59 548.455C1027.02 543.178 1029.59 538.277 1033.11 534.094C1036.63 529.911 1041.03 526.548 1045.98 524.238C1050.94 521.928 1056.34 520.727 1061.81 520.72C1062.94 520.72 1064.08 520.78 1065.16 520.87C1069.07 509.938 1076.56 500.645 1086.4 494.491C1096.25 488.337 1107.88 485.682 1119.42 486.953C1130.96 488.225 1141.74 493.349 1150.01 501.499C1158.28 509.649 1163.56 520.349 1165 531.87C1168.85 531.121 1172.82 531.196 1176.65 532.091C1180.47 532.985 1184.06 534.679 1187.18 537.06C1192.36 533.549 1198.34 531.387 1204.57 530.772C1210.8 530.156 1217.08 531.105 1222.85 533.534C1228.62 535.962 1233.7 539.793 1237.61 544.678C1241.52 549.564 1244.16 555.349 1245.27 561.51C1249.49 559.425 1254.17 558.448 1258.87 558.673C1263.57 558.897 1268.14 560.314 1272.14 562.791C1276.14 565.268 1279.45 568.723 1281.74 572.831C1284.04 576.939 1285.25 581.563 1285.27 586.27C1285.27 587.443 1285.19 588.615 1285.05 589.78C1285.62 589.711 1286.2 589.678 1286.78 589.68C1288.96 589.677 1291.11 590.119 1293.11 590.978C1295.1 591.838 1296.91 593.098 1298.4 594.68C1300.41 592.844 1302.92 591.636 1305.61 591.204C1308.3 590.772 1311.06 591.134 1313.55 592.247C1316.03 593.36 1318.14 595.174 1319.61 597.468C1321.09 599.762 1321.86 602.435 1321.83 605.16Z" fill="url(#paint0_linear_545_3029)"/>
<path d="M1143.94 651.1C1143.95 655.824 1142.35 660.41 1139.4 664.1H553.98C551.424 659.826 550.471 654.782 551.29 649.87C552.121 644.955 554.673 640.496 558.49 637.29C562.311 634.09 567.146 632.353 572.13 632.39C577.11 632.433 581.912 634.244 585.68 637.5C589.73 633.467 594.762 630.561 600.28 629.07C599.972 627.008 599.818 624.925 599.82 622.84C599.824 613.903 602.726 605.208 608.09 598.06C613.447 590.902 620.98 585.674 629.56 583.16C638.132 580.642 647.289 580.968 655.66 584.09C664.035 587.223 671.173 592.979 676.01 600.5C679.07 597.349 682.733 594.846 686.781 593.14C690.828 591.434 695.178 590.56 699.57 590.57H700.4C699.02 582.517 699.415 574.259 701.557 566.374C703.699 558.49 707.537 551.167 712.802 544.92C718.067 538.672 724.633 533.648 732.04 530.201C739.448 526.754 747.519 524.965 755.69 524.96C757.38 524.96 759.09 525.04 760.69 525.18C766.528 508.849 777.702 494.962 792.405 485.763C807.108 476.564 824.483 472.59 841.723 474.482C858.963 476.374 875.062 484.023 887.42 496.192C899.778 508.361 907.673 524.341 909.83 541.55C912.443 541.047 915.098 540.793 917.76 540.79C926.864 540.772 935.717 543.768 942.94 549.31C950.68 544.062 959.608 540.83 968.914 539.908C978.22 538.986 987.609 540.404 996.228 544.032C1004.85 547.66 1012.42 553.383 1018.27 560.683C1024.11 567.982 1028.04 576.626 1029.7 585.83C1036.4 582.488 1043.88 581.028 1051.35 581.606C1058.82 582.184 1065.98 584.778 1072.09 589.111C1078.2 593.444 1083.01 599.354 1086.03 606.21C1089.04 613.066 1090.13 620.611 1089.19 628.04C1090.05 627.943 1090.91 627.896 1091.78 627.9C1095.03 627.902 1098.25 628.572 1101.24 629.869C1104.22 631.166 1106.91 633.062 1109.13 635.44C1112.16 632.791 1115.89 631.068 1119.87 630.478C1123.85 629.888 1127.92 630.455 1131.59 632.112C1135.26 633.768 1138.38 636.444 1140.57 639.821C1142.76 643.199 1143.93 647.134 1143.95 651.16L1143.94 651.1Z" fill="url(#paint1_linear_545_3029)"/>
</g>
<defs>
<linearGradient id="paint0_linear_545_3029" x1="1171.55" y1="635.67" x2="1171.55" y2="490.99" gradientUnits="userSpaceOnUse">
<stop stop-color="#696969" stop-opacity="0"/>
<stop offset="1" stop-color="#818181"/>
</linearGradient>
<linearGradient id="paint1_linear_545_3029" x1="847.48" y1="441.52" x2="847.48" y2="657.6" gradientUnits="userSpaceOnUse">
<stop stop-color="#6C6C6C"/>
<stop offset="1" stop-color="#696969" stop-opacity="0"/>
</linearGradient>
<clipPath id="clip0_545_3029">
<rect width="1920" height="1080" fill="white"/>
</clipPath>
</defs>
</svg>
