<svg width="1920" height="1080" viewBox="0 0 1920 1080" fill="none" xmlns="http://www.w3.org/2000/svg">
<g clip-path="url(#clip0_545_2049)">
<rect width="1920" height="1080" fill="white"/>
<rect width="1920" height="1080" fill="#2B3C45"/>
<g clip-path="url(#clip1_545_2049)">
<path d="M1044 632.006C1044.01 635.636 1042.78 639.162 1040.51 642H589.29C587.288 638.723 586.531 634.842 587.154 631.058C587.778 627.274 589.741 623.837 592.69 621.367C595.639 618.897 599.379 617.557 603.234 617.589C607.09 617.621 610.806 619.024 613.713 621.543C616.832 618.445 620.712 616.212 624.967 615.069C624.729 613.483 624.609 611.883 624.609 610.28C624.607 603.424 626.839 596.752 630.971 591.263C635.102 585.775 640.91 581.765 647.525 579.835C654.14 577.905 661.205 578.158 667.663 580.558C674.121 582.957 679.624 587.372 683.346 593.143C685.703 590.724 688.525 588.801 691.645 587.491C694.764 586.18 698.117 585.507 701.504 585.512C701.722 585.512 701.932 585.512 702.142 585.512C701.066 579.332 701.361 572.992 703.007 566.937C704.652 560.881 707.607 555.256 711.666 550.455C715.725 545.655 720.789 541.794 726.505 539.143C732.221 536.491 738.45 535.114 744.757 535.108C746.059 535.108 747.379 535.168 748.62 535.281C753.112 522.755 761.721 512.101 773.055 505.044C784.39 497.986 797.786 494.938 811.079 496.391C824.371 497.844 836.782 503.715 846.304 513.052C855.826 522.39 861.903 534.65 863.551 547.848C865.567 547.46 867.615 547.265 869.668 547.265C876.687 547.25 883.512 549.552 889.075 553.809C895.044 549.786 901.931 547.309 909.107 546.606C916.284 545.902 923.523 546.994 930.168 549.781C936.813 552.569 942.651 556.964 947.153 562.566C951.656 568.169 954.678 574.802 955.947 581.862C960.811 579.461 966.211 578.333 971.635 578.587C977.06 578.84 982.329 580.466 986.945 583.31C991.561 586.155 995.371 590.124 998.014 594.842C1000.66 599.56 1002.05 604.871 1002.05 610.271C1002.05 611.617 1001.96 612.96 1001.8 614.295C1002.46 614.218 1003.13 614.18 1003.8 614.182C1006.31 614.185 1008.79 614.7 1011.09 615.698C1013.39 616.695 1015.46 618.152 1017.17 619.979C1019.5 617.935 1022.38 616.604 1025.45 616.146C1028.53 615.688 1031.67 616.123 1034.5 617.397C1037.34 618.671 1039.74 620.732 1041.42 623.331C1043.11 625.93 1044 628.957 1044 632.05V632.006Z" fill="url(#paint0_linear_545_2049)"/>
</g>
<g clip-path="url(#clip2_545_2049)">
<path d="M979.001 545.196C978.991 548.03 979.948 550.783 981.716 553H1332.22C1333.78 550.441 1334.37 547.41 1333.88 544.456C1333.4 541.501 1331.87 538.817 1329.58 536.888C1327.29 534.96 1324.39 533.914 1321.39 533.939C1318.4 533.964 1315.51 535.059 1313.25 537.026C1310.83 534.607 1307.81 532.864 1304.51 531.971C1304.69 530.733 1304.79 529.483 1304.79 528.232C1304.79 522.878 1303.05 517.669 1299.84 513.383C1296.64 509.097 1292.12 505.967 1286.99 504.46C1281.85 502.953 1276.36 503.15 1271.34 505.024C1266.33 506.897 1262.05 510.345 1259.16 514.85C1257.33 512.962 1255.14 511.461 1252.71 510.437C1250.29 509.414 1247.68 508.888 1245.05 508.892C1244.88 508.892 1244.72 508.892 1244.56 508.892C1245.39 504.067 1245.16 499.116 1243.89 494.388C1242.61 489.66 1240.31 485.268 1237.16 481.519C1234.01 477.771 1230.07 474.756 1225.63 472.686C1221.19 470.616 1216.35 469.541 1211.45 469.535C1210.44 469.535 1209.42 469.583 1208.45 469.671C1204.97 459.89 1198.28 451.571 1189.47 446.061C1180.67 440.55 1170.26 438.17 1159.94 439.305C1149.61 440.44 1139.97 445.023 1132.57 452.314C1125.18 459.605 1120.46 469.178 1119.18 479.483C1117.61 479.18 1116.02 479.028 1114.42 479.029C1108.97 479.017 1103.67 480.814 1099.35 484.138C1094.71 480.996 1089.36 479.063 1083.79 478.514C1078.21 477.964 1072.59 478.817 1067.43 480.993C1062.27 483.169 1057.73 486.601 1054.23 490.976C1050.73 495.35 1048.39 500.53 1047.4 506.043C1043.62 504.167 1039.43 503.287 1035.21 503.485C1031 503.683 1026.91 504.952 1023.32 507.173C1019.74 509.394 1016.78 512.493 1014.72 516.177C1012.67 519.861 1011.59 524.008 1011.59 528.225C1011.59 529.275 1011.65 530.325 1011.79 531.367C1011.27 531.307 1010.75 531.277 1010.23 531.279C1008.28 531.28 1006.35 531.683 1004.57 532.462C1002.78 533.241 1001.17 534.378 999.846 535.805C998.033 534.209 995.799 533.17 993.41 532.812C991.021 532.455 988.58 532.794 986.379 533.789C984.179 534.784 982.312 536.393 981.003 538.422C979.694 540.452 978.999 542.815 979.001 545.23V545.196Z" fill="url(#paint1_linear_545_2049)"/>
</g>
<mask id="mask0_545_2049" style="mask-type:alpha" maskUnits="userSpaceOnUse" x="659" y="608" width="251" height="112">
<path d="M814 618.681L755 713.999" stroke="#333333" stroke-width="11" stroke-linecap="round" stroke-linejoin="round" stroke-dasharray="80 80"/>
<path d="M904 618.681L845 713.198" stroke="#333333" stroke-width="11" stroke-linecap="round" stroke-linejoin="round" stroke-dasharray="80 80"/>
<path d="M724 613.875L665 709.193" stroke="#333333" stroke-width="11" stroke-linecap="round" stroke-linejoin="round" stroke-dasharray="80 80"/>
</mask>
<g mask="url(#mask0_545_2049)">
<rect x="610" y="580.233" width="357" height="173.015" fill="url(#paint2_linear_545_2049)"/>
</g>
<mask id="mask1_545_2049" style="mask-type:alpha" maskUnits="userSpaceOnUse" x="1047" y="548" width="191" height="86">
<path d="M1164.84 556.64L1120.16 628.826" stroke="#333333" stroke-width="9" stroke-linecap="round" stroke-linejoin="round" stroke-dasharray="80 80"/>
<path d="M1233 556.64L1188.32 628.22" stroke="#333333" stroke-width="9" stroke-linecap="round" stroke-linejoin="round" stroke-dasharray="80 80"/>
<path d="M1096.68 553L1052 625.187" stroke="#333333" stroke-width="9" stroke-linecap="round" stroke-linejoin="round" stroke-dasharray="80 80"/>
</mask>
<g mask="url(#mask1_545_2049)">
<rect x="1010.35" y="527.522" width="270.364" height="131.028" fill="url(#paint3_linear_545_2049)"/>
</g>
</g>
<defs>
<linearGradient id="paint0_linear_545_2049" x1="815.471" y1="471" x2="815.471" y2="637" gradientUnits="userSpaceOnUse">
<stop stop-color="#727272"/>
<stop offset="1" stop-color="#606060" stop-opacity="0"/>
</linearGradient>
<linearGradient id="paint1_linear_545_2049" x1="1156.52" y1="419.479" x2="1156.52" y2="549.095" gradientUnits="userSpaceOnUse">
<stop stop-color="#727272"/>
<stop offset="1" stop-color="#606060" stop-opacity="0"/>
</linearGradient>
<linearGradient id="paint2_linear_545_2049" x1="765.5" y1="731.621" x2="765.5" y2="601.86" gradientUnits="userSpaceOnUse">
<stop stop-color="#656565"/>
<stop offset="0.571967" stop-color="#7C7C7C" stop-opacity="0.264553"/>
<stop offset="1" stop-color="#656565" stop-opacity="0"/>
</linearGradient>
<linearGradient id="paint3_linear_545_2049" x1="1128.11" y1="642.172" x2="1128.11" y2="543.901" gradientUnits="userSpaceOnUse">
<stop stop-color="#656565"/>
<stop offset="0.571967" stop-color="#7C7C7C" stop-opacity="0.264553"/>
<stop offset="1" stop-color="#656565" stop-opacity="0"/>
</linearGradient>
<clipPath id="clip0_545_2049">
<rect width="1920" height="1080" fill="white"/>
</clipPath>
<clipPath id="clip1_545_2049">
<rect width="457" height="146" fill="white" transform="translate(587 496)"/>
</clipPath>
<clipPath id="clip2_545_2049">
<rect width="355" height="114" fill="white" transform="matrix(-1 0 0 1 1334 439)"/>
</clipPath>
</defs>
</svg>
