<svg width="1920" height="1080" viewBox="0 0 1920 1080" fill="none" xmlns="http://www.w3.org/2000/svg">
<g clip-path="url(#clip0_545_3102)">
<rect width="1920" height="1080" fill="white"/>
<rect width="1920" height="1080" fill="#9FD9F8"/>
<circle cx="1151" cy="466" r="74" fill="#F1B645"/>
<path d="M623.992 490.716C619.787 489.158 615.863 486.928 612.373 484.115C609.359 481.818 607.05 479.391 607.01 476.382C606.945 475.44 607.202 474.505 607.739 473.728C609.157 471.908 612.6 471.649 616.441 473.3C618.998 472.016 621.785 471.252 624.64 471.051C628.507 470.788 632.376 471.55 635.853 473.259L696.862 497.996L719.815 493.337L726.637 495.602L710.927 504.096L730.964 511.837C733.338 512.42 735.339 512.768 736.765 512.986C740.889 513.601 745.807 514.297 751.608 513.124C752.998 512.836 754.367 512.458 755.708 511.991C765.544 508.683 783.838 497.632 787.679 495.295L798.624 499.825L771.888 530.257C775.22 534.496 778.545 538.737 781.861 542.981L774.812 541.59L764.523 534.819C755.319 534.01 747.508 533.129 741.513 532.392C723.988 530.338 717.838 529.092 711.162 526.819C707.141 525.454 703.219 523.817 699.422 521.917L712.305 547.342L702.849 545.044C698.102 538.945 693.351 532.843 688.598 526.738C686.595 527.242 684.523 527.414 682.465 527.248C678.35 526.851 674.464 525.179 671.349 522.467C671.348 521.119 671.578 519.781 672.029 518.511C672.482 517.228 673.157 516.035 674.022 514.984L680.374 516.076L678.227 512.622C651.296 501.127 632.41 493.345 623.992 490.716Z" fill="white"/>
<path d="M1313.32 751.194L1314 751.469C1312.57 750.846 1313.36 751.194 1313.32 751.194Z" fill="white"/>
<path d="M1299.24 745.442L1299.49 745.531L1297.4 744.722L1299.24 745.442Z" fill="white"/>
<path d="M1286.07 740.087C1287.28 740.694 1290.85 742.004 1293.18 742.991L1293.56 743.169L1294.64 743.541C1291.79 742.384 1288.07 740.928 1286.07 740.087Z" fill="white"/>
<path d="M1279.16 736.947C1279.57 737.182 1277.63 736.365 1280.78 737.643L1280.49 737.505L1279.16 736.947Z" fill="white"/>
<path d="M1280.5 737.506C1281.88 738.081 1279.61 737.094 1280.5 737.506V737.506Z" fill="white"/>
<path d="M1274.1 734.885L1275.94 735.597C1275.58 735.403 1273.96 734.715 1274.57 734.942C1272.69 734.206 1273.06 734.392 1274.1 734.885Z" fill="white"/>
<path d="M1272.33 734.286L1273.28 734.65C1272.98 734.502 1272.66 734.381 1272.33 734.286Z" fill="white"/>
<path d="M1275.3 735.435L1273.29 734.626C1273.57 734.808 1273.88 734.932 1274.21 734.99C1274.03 735.014 1274.45 735.111 1275.3 735.435Z" fill="white"/>
<path d="M1276.43 735.92C1277.44 736.373 1278.75 736.931 1276.91 736.227C1280.4 737.643 1279.92 737.344 1276.43 735.92Z" fill="white"/>
<path d="M1285.36 739.925L1286.72 740.499L1287.92 740.944C1287.32 740.725 1285.28 739.868 1285.36 739.925Z" fill="white"/>
<path d="M1262.79 730.081C1262.66 730.081 1263.36 730.445 1263.48 730.55L1264.84 731.06C1264.14 730.77 1263.46 730.443 1262.79 730.081Z" fill="white"/>
<path d="M1263.48 730.549L1261.44 729.789C1263.2 730.541 1263.58 730.638 1263.48 730.549Z" fill="white"/>
<path d="M1271.93 734.319L1275.29 735.565L1271.29 734.061L1271.93 734.319Z" fill="white"/>
<path d="M1255.11 726.868L1256.3 727.24L1254.2 726.553L1255.11 726.868Z" fill="white"/>
<path d="M1250.01 724.765C1250.89 725.024 1248.92 724.118 1249.84 724.426C1248.45 723.867 1247.23 723.455 1246.14 723.091C1247.29 723.52 1248.49 724.037 1250.01 724.765Z" fill="white"/>
<path d="M1244.3 722.46C1244.88 722.67 1245.48 722.873 1246.14 723.091C1245.53 722.881 1244.92 722.654 1244.3 722.46Z" fill="white"/>
<path d="M1258.01 728.358C1257.53 728.038 1257.02 727.767 1256.48 727.549L1257.22 728.002L1258.01 728.358Z" fill="white"/>
<path d="M1257.24 728.042L1255.53 727.33L1257.24 728.042Z" fill="white"/>
<path d="M1258.22 728.437L1258.01 728.356C1258.08 728.396 1258.14 728.424 1258.22 728.437Z" fill="white"/>
<path d="M1266.68 732.077C1265.48 731.648 1262.97 730.71 1265.33 731.77C1266.21 732.045 1264.86 731.438 1266.68 732.077Z" fill="white"/>
<path d="M1259.15 728.996L1261.28 729.894C1261.28 729.854 1260.88 729.643 1261.48 729.854L1259.15 728.996Z" fill="white"/>
<path d="M1258.07 728.6L1259.13 728.996L1258.35 728.656L1258.07 728.6Z" fill="white"/>
<path d="M1247.91 724.127C1246.96 723.803 1245.95 723.391 1244.8 722.938C1246.02 723.471 1247.27 724.005 1248.48 724.499C1248.67 724.499 1249.22 724.661 1247.91 724.127Z" fill="white"/>
<path d="M1252.44 726.044L1252.24 725.963C1252.36 726.028 1252.46 726.117 1252.44 726.044Z" fill="white"/>
<path d="M1233.55 718.302L1233.72 718.407H1233.77L1233.55 718.302Z" fill="white"/>
<path d="M1248.67 724.611C1249.32 724.908 1250 725.165 1250.68 725.38L1248.48 724.498C1248.39 724.498 1248.37 724.498 1248.67 724.611Z" fill="white"/>
<path d="M1241.14 721.263L1242.7 722.007C1242.2 721.721 1241.68 721.472 1241.14 721.263Z" fill="white"/>
<path d="M1251.94 725.8L1252.07 725.849C1251.79 725.695 1251.86 725.719 1251.94 725.8Z" fill="white"/>
<path d="M1251.94 725.801C1251.46 725.623 1251.07 725.501 1250.68 725.38L1252.24 725.962L1251.94 725.801Z" fill="white"/>
<path d="M1229.66 718.092C1229.9 717.987 1232.39 718.804 1234.42 719.815C1236.54 720.511 1235.39 719.451 1233.72 718.407C1233.63 718.456 1233.6 718.521 1231.45 717.752C1232.15 718.149 1236.07 719.88 1234.22 719.297C1232.96 718.891 1231.75 718.348 1230.6 717.679C1231.68 718.359 1226.9 716.555 1227.36 717.129L1229.88 717.995C1229.92 718.027 1229 717.777 1229.66 718.092Z" fill="white"/>
<path d="M1237.74 720.082L1238.62 720.422C1237.64 719.985 1236.96 719.613 1235.7 718.966C1235.09 718.691 1234.44 718.497 1233.77 718.392L1238.05 720.179L1237.74 720.082Z" fill="white"/>
<path d="M1242.53 722.071C1241.78 721.95 1239.67 721.165 1240.91 721.869C1242.02 722.31 1243.16 722.691 1244.31 723.009C1240.17 721.391 1245.54 723.414 1242.59 722.095C1243.4 722.403 1244.14 722.694 1244.83 722.977L1242.73 722.022L1242.82 722.071C1242.98 722.168 1243.04 722.2 1242.82 722.071H1242.73C1242.66 722.086 1242.59 722.086 1242.52 722.071C1241.35 721.553 1242.35 721.958 1242.73 722.071C1242.73 722.071 1242.79 722.071 1242.8 722.071L1238.63 720.453C1239.48 720.801 1240.59 721.262 1242.53 722.071Z" fill="white"/>
<path d="M1263.03 731.123C1262.9 731.067 1262.91 731.059 1262.9 731.05C1262.63 730.97 1262.53 730.921 1263.03 731.123Z" fill="white"/>
<path d="M1261.34 730.379C1261.87 730.535 1262.39 730.721 1262.9 730.937C1263.71 731.318 1262.9 730.994 1262.9 731.051C1263.51 731.253 1265 731.795 1263.17 730.994L1262.87 730.897C1261.25 730.185 1259.14 729.166 1259.44 729.279C1260.04 729.695 1260.68 730.062 1261.34 730.379Z" fill="white"/>
<path d="M1251.79 726.237L1248.32 724.91L1250.02 725.719L1249.96 725.614C1251.91 726.455 1251.52 726.196 1251.79 726.237Z" fill="white"/>
<path d="M1233.2 718.043H1233.72L1231.63 717.493L1233.2 718.043Z" fill="white"/>
<path d="M1228.72 716.223L1228.96 716.118L1227.74 715.737L1228.72 716.223Z" fill="white"/>
<path d="M973.24 620.785L972.146 620.599C972.505 620.692 972.871 620.754 973.24 620.785Z" fill="white"/>
<path d="M980.614 623.664L980.93 623.397C980.508 623.454 980.314 623.535 980.614 623.664Z" fill="white"/>
<path d="M1118.98 670.98C1117.66 669.993 1116.25 668.715 1116.25 669.249L1116.52 669.888C1117.38 670.157 1118.2 670.523 1118.98 670.98Z" fill="white"/>
<path d="M1042.43 643.604L1042.79 643.96L1044.02 643.774L1042.43 643.604Z" fill="white"/>
<path d="M1040.39 645.749L1038.59 644.592C1039.16 645.026 1039.76 645.413 1040.39 645.749Z" fill="white"/>
<path d="M932.543 606.224L931.004 606.644C932.875 607.348 932.227 606.596 932.543 606.224Z" fill="white"/>
<path d="M1182.93 697.447C1181.71 696.808 1180.72 696.339 1179.84 695.959C1181.3 696.768 1182.43 697.528 1182.93 697.447Z" fill="white"/>
<path d="M979.35 613.877C978.677 613.755 978.353 613.804 978.305 613.982C978.993 614.111 979.415 614.111 979.35 613.877Z" fill="white"/>
<path d="M1176.17 694.447L1176.81 694.795C1177.76 695.127 1178.71 695.475 1179.84 695.96C1178.69 695.283 1177.46 694.773 1176.17 694.447Z" fill="white"/>
<path d="M786.503 549.501C786.404 549.421 786.312 549.331 786.228 549.234C786.131 549.38 786.277 549.453 786.503 549.501Z" fill="white"/>
<path d="M749.016 520.307C749.62 520.471 750.212 520.673 750.79 520.913C750.247 520.59 749.643 520.384 749.016 520.307Z" fill="white"/>
<path d="M1210.79 708.7C1211.74 709.08 1210.95 708.7 1210.79 708.7V708.7Z" fill="white"/>
<path d="M1215.05 711.491C1214.83 711.435 1214.67 711.41 1214.62 711.451C1214.76 711.431 1214.91 711.445 1215.05 711.491Z" fill="white"/>
<path d="M1165.92 692.618H1165.83C1166.09 692.764 1166.05 692.731 1165.92 692.618Z" fill="white"/>
<path d="M1212.16 709.395L1210.97 708.829C1211.18 708.926 1211.54 709.128 1212.16 709.395Z" fill="white"/>
<path d="M1212.03 709.209L1212.84 709.573C1212.97 709.589 1212.89 709.516 1212.03 709.209Z" fill="white"/>
<path d="M1209.46 708.175C1210.01 708.393 1210.51 708.612 1210.99 708.83C1210.81 708.733 1210.74 708.693 1210.79 708.701L1209.46 708.175Z" fill="white"/>
<path d="M865.978 576.827C865.929 576.771 865.865 576.722 865.808 576.649C864.682 576.698 865.135 576.795 865.978 576.827Z" fill="white"/>
<path d="M1092.3 665.965H1092.41L1092.28 665.892L1092.3 665.965Z" fill="white"/>
<path d="M1088.71 665.009C1089.97 664.926 1091.22 665.24 1092.29 665.907L1091.73 664.03L1088.71 665.009Z" fill="white"/>
<path d="M955.463 614.241L957.594 615.859C954.208 615.931 952.255 614.734 954.118 616.603C955.463 614.225 963.63 619.879 964.943 617.557L966.328 618.682C965.883 618.48 965.753 618.593 965.307 618.399C967.941 620.745 968.313 617.517 972.154 619.41C973.474 620.13 974.301 620.842 973.239 620.761L976.569 621.367C977.453 621.756 977.072 622.087 976.189 621.691L980.985 623.309L980.928 623.357C982.061 623.277 983.198 623.277 984.331 623.357C985.401 624.166 983.634 623.357 983.829 623.778L986.657 624.223C987.467 625.234 985.093 624.975 983.318 624.223C984.842 627.459 985.749 624.482 990.456 627.831L987.872 627.184C988.949 629.077 991.064 629.344 993.543 631.188C993.041 630.533 988.747 627.054 991.818 627.58C992.855 628.241 994.048 628.621 995.277 628.68C994.977 629.489 996.549 629.853 998.437 630.525L997.894 631.52C1000.04 631.989 1000.09 631.398 1001.47 631.39C1003.68 632.361 1003.82 633.332 1004.09 634.197C1007.64 635.734 1002.11 631.981 1006.46 633.388C1009.3 634.925 1011.58 635.314 1015.37 636.114C1017.33 637.263 1014.76 636.575 1015.37 637.142L1017.54 637.077C1017.99 637.271 1017.74 637.457 1017.62 637.546C1019.32 637.845 1018.14 636.616 1020.71 637.312C1021.8 636.503 1025.15 640.814 1028.68 640.798C1029.32 641.356 1028.08 641.243 1028.17 641.696C1030.69 642.284 1033.25 642.662 1035.83 642.829L1038.51 644.568C1036.63 643.047 1039.7 643.298 1042.37 643.597C1041.73 642.966 1041.2 642.424 1040.82 642.109L1044.83 643.16C1045.23 643.492 1044.73 643.646 1043.95 643.767C1044.25 643.767 1044.52 643.824 1044.76 643.832C1046 644.713 1045.09 644.94 1043.91 645.053C1043.51 644.689 1043.1 644.317 1042.75 643.953C1041.58 644.123 1040.45 644.39 1040.44 644.996C1040.9 645.019 1041.35 645.101 1041.79 645.239C1041.49 645.296 1041.27 645.369 1041.35 645.498C1041.43 645.627 1041.93 645.603 1042.65 645.619L1043.12 646.954L1043.49 646.639L1048.27 649.195C1052.26 649.591 1055.95 649.397 1061.79 651.282C1060.1 651.403 1061.04 652.277 1060.64 653.053C1059.43 651.589 1056.08 651.711 1053.18 650.392C1054.69 651.08 1054.2 651.347 1053.75 651.33L1059.34 652.576C1058.95 653.199 1060.26 653.515 1061.53 654.315C1061.01 652.609 1065.81 654.971 1068.11 655.416C1068.11 655.893 1067.38 656.136 1064.8 655.019C1067.31 657.09 1069.13 654.963 1071.64 656.888C1071 656.645 1070.68 656.451 1070.34 656.564C1071.96 656.775 1075.51 658.49 1074.51 658.514L1073.87 658.279C1078.05 660.075 1086.78 663.287 1087.81 662.55C1087.43 663.002 1086.96 663.371 1086.43 663.634C1089.41 663.489 1092.36 663.375 1095.35 663.311C1094.34 663.877 1096.12 666.846 1092.41 665.956C1093.79 666.701 1095.28 667.246 1096.82 667.574C1096.17 667.194 1095.57 665.713 1096.55 666.013C1098.77 667.93 1098.17 667.202 1101.03 669.2C1100.06 668.634 1101.71 667.808 1103.32 668.496C1102.99 668.585 1102.96 669.782 1102.31 669.685L1106.87 670.049C1105.77 669.863 1106.28 671.004 1107.05 671.667C1106.72 671.271 1110.56 673.042 1111.69 673.342L1110.07 672.403C1114.59 674.353 1115.25 672.525 1119.79 674.385C1119.15 674.385 1117.85 675.299 1120.11 676.343C1121.41 676.157 1125.9 675.421 1130.06 676.642L1130.7 677.265L1133.94 678.155C1131.72 678.155 1125.63 677.791 1122.4 677.346C1124.02 678.268 1122.72 677.92 1125.31 678.875C1126.12 679.522 1123.69 678.794 1122.96 678.527L1128.88 681.002C1128.88 680.258 1133.74 682.119 1133.74 681.512L1126.97 679.667C1126.97 678.907 1131.46 679.287 1135.65 681.083C1136.62 681.746 1134.4 681.892 1134.4 682.119C1135.96 682.415 1137.48 682.901 1138.92 683.567L1136.99 683.194C1139.26 684.335 1141.16 683.89 1143.77 685.557C1144.74 685.977 1146.4 687.433 1146.71 687.174C1145.37 685.896 1145.9 683.688 1147.15 683.623C1147.47 683.809 1152.01 686.317 1153 687.077C1154.41 688.21 1150.11 687.328 1151.3 688.299C1151.8 688.236 1152.3 688.272 1152.78 688.404C1153.76 688.938 1152.17 688.719 1154.4 689.512C1154.99 689.1 1158.92 691.332 1155.64 689.448C1157.89 690.143 1157.92 690.475 1160.5 691.446C1159.83 690.774 1163.27 691.162 1165.52 691.89C1165.33 691.979 1165.75 692.343 1165.96 692.521C1170.4 694.342 1172.71 695.523 1176.89 697.165C1177.22 697.44 1179.18 698.37 1178.24 698.241C1179.1 698.391 1179.95 698.623 1180.77 698.936C1183.11 700.32 1177.88 697.877 1179.58 699.114C1179.86 698.896 1183.07 700.036 1184.96 700.587C1184.57 699.956 1180.77 698.839 1178.86 698.297C1179.09 697.699 1182.52 698.354 1186.96 699.859C1190.47 701.12 1188.32 700.821 1188.95 700.983C1195.43 703.677 1194.84 702.293 1200.07 704.866C1202.08 706.047 1199.91 705.537 1200.29 705.958C1197.43 704.955 1196.06 704.025 1194.14 703.272L1196.43 704.364C1195.11 703.996 1193.83 703.522 1192.59 702.949C1194.26 703.96 1203.54 707.374 1208.46 709.614C1209.39 709.865 1210.96 710.375 1210.28 709.97L1208.66 709.38C1207.3 708.571 1211.78 710.253 1209.81 709.339C1212.41 710.084 1214.95 711 1217.42 712.082L1217.86 712.624C1216.99 712.108 1216.07 711.698 1215.1 711.402C1216.4 711.774 1219.52 713.659 1221.04 713.829L1219.03 712.769C1221.6 713.513 1224.12 714.401 1226.58 715.431C1225.49 714.622 1225.96 715.212 1224.21 714.112C1225.68 715.196 1217.47 711.297 1219.9 712.826C1218.13 711.629 1216.66 711.289 1214.23 709.881C1214.23 710.027 1215.04 710.456 1212.84 709.485C1212.67 709.461 1212.49 709.426 1212.32 709.38L1212.17 709.307L1212.29 709.372C1212.19 709.372 1212.18 709.372 1212.33 709.372C1212.71 709.55 1213.06 709.761 1213.4 710.003C1212.2 709.792 1208.67 708.344 1207.42 707.988C1206.13 707.398 1208.03 708.085 1207.36 707.673L1205.49 707.147C1205.41 706.823 1202.16 705.286 1205.32 706.411L1202.54 705.246C1200.84 704.361 1199.09 703.596 1197.29 702.957C1195.99 702.35 1193.84 701.897 1195.08 702.148L1190.63 700.53V700.441C1186.32 698.605 1181.53 697.294 1176.85 694.689C1175.01 694.077 1173.2 693.364 1171.43 692.554L1171.08 692.068C1169.16 691.405 1165.59 689.447 1164.67 689.431C1162.98 687.813 1155.7 685.484 1152.47 683.971L1152.18 684.351C1149.94 683.389 1147.72 682.612 1144.84 681.641V682.102C1142.29 681.447 1138.73 679.279 1134.89 677.742C1135.58 677.859 1136.24 678.118 1136.82 678.503C1132.63 675.663 1126.9 675.267 1123.05 672.84C1122.16 672.633 1121.32 672.284 1120.54 671.805C1120.63 671.84 1120.72 671.867 1120.81 671.885L1120.39 671.708C1119.97 671.441 1119.53 671.157 1119.05 670.899C1119.41 671.168 1119.78 671.414 1120.16 671.635C1119.35 671.319 1118.13 670.874 1116.92 670.51L1116.61 669.807L1116.34 669.709C1115.25 669.038 1115.31 669.556 1115.78 670.187C1115.23 670.034 1114.66 669.92 1114.09 669.847C1113.47 668.65 1110.85 668.852 1109.93 667.42C1108.97 667.517 1103.85 665.301 1102.84 665.98C1102.84 665.843 1102.52 665.641 1103.16 665.891C1101.96 665.206 1100.67 664.702 1099.32 664.395L1099.02 663.481L1095.78 663.23C1094.16 662.105 1093.57 661.547 1095.52 661.725C1091 660.844 1091.99 660.641 1088.09 660.026L1088.44 659.638C1087.16 659.129 1084.86 658.934 1084.25 658.231C1081.75 656.16 1070.14 652.374 1063.18 648.475C1063.99 650.578 1060.05 646.388 1059.28 647.464C1058.99 646.922 1058.06 646.291 1059.37 646.461C1055.48 645.296 1053.99 643.557 1051 643.532C1050.71 642.974 1052.02 643.306 1051.72 642.926C1051.39 642.885 1050.4 642.764 1050.1 642.384C1049.8 642.003 1050.78 642.287 1051.43 642.384C1047.59 640.863 1046.73 641.89 1046.01 642.885C1044.29 641.575 1043.29 641.267 1041.59 641.421C1041.06 640.782 1040.09 639.933 1042.52 640.774C1041.21 640.175 1034.57 636.883 1034.07 637.765C1033.4 637.304 1032.63 637.007 1031.83 636.899C1028.84 635.629 1028.58 635.435 1025.64 634.327L1026.39 634.812C1024.77 635.5 1023.83 634.084 1021.4 633.259L1021.51 633.17C1016.4 630.112 1018.99 632.628 1014.01 629.465V630.339C1012.87 631.754 1009.63 627.459 1006.26 626.812L1007.21 627.701C1005.28 627.588 1003.34 623.519 1001.72 622.597C1001.41 622.298 1002.4 622.597 1002.97 622.71C998.915 619.871 1001.98 623.519 998.55 622.371C998.153 621.562 999.903 621.278 997.74 620.251C996.808 619.321 990.497 619.402 987.872 617.056C988.374 617.776 988.868 618.488 987.183 618.188C984.753 617.379 981.439 613.861 978.725 614.419C978.473 614.168 978.409 613.998 978.441 613.885C976.48 613.513 972.291 612.089 970.882 612.445C970.631 610.633 967.641 609.832 964.902 609.161C962.164 608.489 959.563 607.963 960.146 606.556L954.475 604.428L954.734 604.194C951.242 602.576 949.703 602.713 948.172 602.908C947.426 602.374 948.131 602.349 948.261 602.22C943.278 599.51 942.719 599.397 937.728 599.114L937.663 597.957C936.245 598.054 930.736 593.338 925.162 592.399C925.26 592.307 925.378 592.238 925.508 592.199C925.637 592.16 925.774 592.151 925.907 592.173C922.796 591.591 919.628 589.479 916.8 587.853C913.973 586.227 911.477 585.103 909.662 586.567L905.49 585.968C910.294 588.25 904.088 587.336 905.862 588.784C903.837 588.242 901.317 585.621 903.772 586.357L904.072 586.696C905.741 585.079 898.238 583.517 898.919 582.191C889.196 578.356 880.284 573.349 871.234 569.523L871.607 571.642L868.479 570.259C867.807 569.523 867.896 568.471 870.1 569.45C869.289 568.002 866 568.706 865.781 569.062C861.649 566.562 868.301 567.775 866.964 567.177L865.076 566.554L865.408 566.926C863.642 567.007 863.213 567.735 860.547 566.514C858.967 565.47 860.094 565.09 859.445 564.742C859.494 564.621 859.291 564.467 858.433 564.273L854.511 562.485L855.556 564.515C853.515 564.515 851.837 562.898 853.053 565.235C851.319 561.717 838.542 558.327 837.189 556.887C834.296 556.928 831.858 555.925 828.884 554.566C829.516 555.18 829.314 556.992 826.786 555.747C829.095 552.737 822.589 552.341 821.471 549.008C822.702 551.435 813.903 546.387 815.921 549.938C813.855 548.782 816.302 548.588 814.981 547.099C809.261 546.347 803.93 541.55 797.359 539.382C797.067 539.811 797.853 541 796.192 541.121L793.762 537.359C792.4 537.076 791.493 539.649 789.848 537.036C790.01 537.578 790.261 538.387 789.346 538.193C783.545 534.472 776.958 532.328 770.436 529.942C763.913 527.555 757.472 524.918 752.044 519.951C753.364 521.658 752.182 521.278 750.853 520.76C751.606 521.351 750.318 522.03 750.213 522.799L745.659 518.673C743.901 520.242 739.891 516.473 738.578 518.139L740.409 518.479C737.266 519.814 741.584 524.692 740.118 527.377C743.642 525.873 745.319 533.671 750.885 531.721C751.574 532.643 749.751 532.32 749.978 533.153C751.509 532.344 752.878 532.611 755.017 534.059L754.636 534.253C761.369 536.534 763.743 538.799 770.881 542.415V540.87C771.793 541.337 772.584 542.01 773.19 542.836C775.824 541.542 768.75 540.984 771.303 539.414C772.348 542.933 782.548 543.839 782.775 547.406C785.206 548.369 782.654 545.627 785.109 546.598L785.433 547.665L786.47 546.856C788.017 547.665 788.422 548.976 788.212 549.68C787.688 549.5 787.143 549.386 786.591 549.34C788.309 551.087 792.619 551.281 793.219 551.864L791.047 550.464C798.056 552.309 805.85 556.475 812.923 557.413L812.664 556.604C818.035 557.462 816.375 558.78 822.006 560.39L821.754 560.455C823.245 560.347 824.738 560.626 826.089 561.264C824.469 561.393 828.163 563.545 826.089 563.577C831.898 564.532 829.095 563.723 833.462 563.035L833.908 564.273C835.447 563.909 835.722 563.512 838.526 564.337C835.99 564.257 839.701 566.4 836.792 566.473C841.702 570.655 846.044 567.759 847.511 571.642C851.108 570.186 843.136 568.358 844.813 568.406C843.914 567.112 847.705 567.395 849.391 568.342C851.181 569.151 851.222 572.71 855.816 574.417C855.37 574.231 855.265 574.417 854.811 574.223C856.277 575.501 858.505 574.676 860.207 576.488C861.965 575.493 862.905 577.628 863.974 575.913L859.543 574.846C862.111 575.274 865.214 574.037 868.698 576.585C867.812 576.824 866.89 576.904 865.976 576.819C866.907 577.806 868.325 577.321 869.289 578.34C868.228 580.031 864.031 576.722 860.92 577.175C861.844 578.429 866.284 577.701 864.201 579.198C867.053 577.386 868.593 581.244 872.457 580.532L871.817 581.535C872.718 581.461 873.624 581.554 874.491 581.811L872.295 582.579C875.285 582.352 876.727 585.475 879.393 585.742C874.337 583.849 878.777 584.027 876.962 582.425C883.744 583.404 879.393 586.591 886.604 588.735C885.599 588.525 883.314 586.753 884.983 586.826C886.27 587.508 887.429 588.405 888.41 589.479C893.118 591.024 888.127 588.136 890.347 588.25C891.416 590.118 892.818 588.606 894.997 588.994L894.6 590.045C899.591 592.731 896.853 588.428 901.26 591.057L898.692 591.712L901.309 592.294L900.329 593.265C903.359 593.427 904.104 593.977 906.608 595.312C906.284 594.357 907.685 593.605 910.027 594.503C911.372 595.716 908.755 595.109 912.109 596.242C911.112 596.582 909.986 597.051 908.917 595.579C908.641 595.854 907.928 595.935 907.645 596.201C909.087 597.544 911.89 597.997 913.089 598.45C912.654 598.272 912.249 598.026 911.89 597.722L917.221 598.183C917.829 598.839 917.108 598.911 916.411 598.992C917.424 599.259 918.275 599.057 919.733 599.526C919.044 600.181 918.801 601.039 916.63 600.651L921.556 601.46C921.718 601.921 923.517 603.296 922.812 603.369C925.162 604.776 929.626 604.178 932.737 606.087C933.203 605.994 933.685 606.019 934.139 606.159C937.217 607.543 939.64 609.525 943.788 609.921L945.409 612.073C948.455 612.882 943.213 609.29 948.285 610.649C951.898 611.555 949.095 612.267 950.181 613.076C952.166 613.076 955.674 612.874 958.421 615.139C957.414 614.915 956.425 614.614 955.463 614.241ZM991.777 627.532C990.967 627.426 989.411 627.418 989.087 626.723C990.23 626.124 990.667 626.804 991.777 627.532ZM1047.23 647.003C1046.42 646.895 1045.66 646.542 1045.06 645.991C1045.82 646.223 1046.54 646.563 1047.2 647.003H1047.23ZM1200.36 704.639H1200.28C1198.74 703.871 1199.27 704.146 1200.32 704.639H1200.36ZM1203.52 706.079C1203.86 706.176 1203.85 706.128 1203.73 706.031C1203.11 705.863 1202.51 705.638 1201.94 705.359C1202.41 705.683 1202.93 705.926 1203.48 706.079H1203.52ZM858.846 565.138L859.356 565.697C857.809 565.462 858.327 565.324 858.846 565.138Z" fill="white"/>
<path d="M1040.63 645.506C1040.52 645.371 1040.46 645.196 1040.48 645.021C1040.16 645.029 1040.1 645.158 1040.63 645.506Z" fill="white"/>
<path d="M932.827 606.151L932.721 606.095C932.653 606.125 932.593 606.169 932.543 606.224L932.827 606.151Z" fill="white"/>
<path d="M1152.44 689.099C1152.01 688.907 1151.61 688.671 1151.23 688.396C1151.16 688.484 1151.39 688.679 1152.44 689.099Z" fill="white"/>
<path d="M1220.63 712.657L1218.56 711.848C1219.18 712.094 1219.78 712.378 1220.37 712.697C1220.36 712.64 1219.99 712.365 1220.63 712.657Z" fill="white"/>
<path d="M1237.97 721.263C1238.28 721.36 1238.61 721.514 1238.92 721.611L1238.87 721.489C1237.58 720.947 1236.66 720.664 1237.97 721.263Z" fill="white"/>
<path d="M1222.22 714.208C1222.31 714.467 1223.63 714.928 1225.08 715.47L1224.83 715.373C1225.36 715.284 1223.79 714.742 1222.22 714.208Z" fill="white"/>
<path d="M1225.43 715.601C1225.87 715.77 1226.33 715.957 1226.75 716.134C1226.97 716.102 1226.23 715.9 1225.43 715.601Z" fill="white"/>
<path d="M1207.6 707.601C1208.27 707.94 1208.14 707.487 1208.49 707.738C1209.38 707.771 1203.81 706.209 1207.6 707.601Z" fill="white"/>
<path d="M1223.14 715.308L1222.72 714.871L1221.84 714.733L1223.14 715.308Z" fill="white"/>
<path d="M1211.81 710.576L1214.09 711.571C1214.09 711.515 1214.38 711.612 1214.74 711.733C1213.79 711.296 1212.81 710.91 1211.81 710.576Z" fill="white"/>
<path d="M1214.74 711.733C1215.48 712.033 1216.19 712.308 1216.61 712.437C1216.21 712.275 1215.35 711.944 1214.74 711.733Z" fill="white"/>
<path d="M1219.96 714.129L1219.29 713.805L1217.67 713.142L1219.96 714.129Z" fill="white"/>
<path d="M1187.04 700.595L1184.48 699.681C1184.18 699.681 1184.84 700.045 1185.79 700.368C1186.42 700.53 1187.36 700.862 1187.04 700.595Z" fill="white"/>
<path d="M1194.33 704.494C1193.96 704.315 1193.62 704.089 1193.31 703.822L1193.08 704.178L1194.33 704.494Z" fill="white"/>
<path d="M1186.89 701.703C1186.6 701.703 1183.09 700.603 1186.31 701.824C1186.62 701.849 1189.18 702.706 1186.89 701.703Z" fill="white"/>
<path d="M1149.1 686.131L1149.75 686.382L1150 685.476L1149.1 686.131Z" fill="white"/>
<path d="M1114.61 675.371C1117.51 676.771 1115.57 675.007 1118.16 676.358C1118.97 676.358 1116.05 675.25 1116.85 675.315C1114.93 674.878 1114.05 674.344 1114.61 675.371Z" fill="white"/>
<path d="M1116.85 675.315C1117.16 675.388 1117.48 675.461 1117.84 675.518C1117.51 675.428 1117.18 675.36 1116.85 675.315Z" fill="white"/>
<path d="M742.653 515.809L740.992 514.386L741.819 515.915L742.653 515.809Z" fill="white"/>
<path d="M738.078 516.602L738.41 514.467L736.555 515.761C737.025 515.793 737.924 515.988 738.078 516.602Z" fill="white"/>
<path d="M996.258 631.73L996.51 631.527C996.323 631.139 995.878 630.945 994.986 630.557L996.258 631.73Z" fill="white"/>
<path d="M970.365 620.979L970.803 621.173L970.381 619.814L970.365 620.979Z" fill="white"/>
<path d="M947.801 614.039C948.684 614.427 949.834 614.573 950.718 614.961C948.684 614.427 948.109 612.567 947.801 614.039Z" fill="white"/>
</g>
<defs>
<clipPath id="clip0_545_3102">
<rect width="1920" height="1080" fill="white"/>
</clipPath>
</defs>
</svg>
