<svg width="1920" height="1080" viewBox="0 0 1920 1080" fill="none" xmlns="http://www.w3.org/2000/svg">
<g clip-path="url(#clip0_545_2328)">
<rect width="1920" height="1080" fill="white"/>
<rect width="1920" height="1080" fill="#31383D"/>
<ellipse cx="958.5" cy="558.5" rx="351.5" ry="168.5" fill="url(#paint0_radial_545_2328)" fill-opacity="0.4"/>
<path d="M749.427 608.684L724.137 647.14L717.672 636.902H759L720.816 684L737.89 640.452L744.073 651.232H708L711.206 640.993L729.057 584L756.947 597.261L749.427 608.684Z" fill="url(#paint1_linear_545_2328)" fill-opacity="0.8"/>
<path d="M1223.43 615.684L1198.14 654.14L1191.67 643.902H1233L1194.82 691L1211.89 647.452L1218.07 658.232H1182L1185.21 647.993L1203.06 591L1230.95 604.261L1223.43 615.684Z" fill="url(#paint2_linear_545_2328)" fill-opacity="0.5"/>
<path d="M981.297 619.298L945.098 674.291L935.844 659.649H995L940.345 727L964.784 664.727L973.634 680.142H922L926.589 665.5L952.14 584L992.062 602.964L981.297 619.298Z" fill="url(#paint3_linear_545_2328)"/>
<path d="M878.549 508.374L848.301 554.137L840.568 541.953H890L844.329 598L864.751 546.178L872.147 559.006H829L832.835 546.822L854.186 479L887.545 494.781L878.549 508.374Z" fill="url(#paint4_linear_545_2328)" fill-opacity="0.5"/>
<circle cx="860" cy="532" r="59" fill="url(#paint5_radial_545_2328)" fill-opacity="0.3"/>
<path d="M1105.43 489.81L1088.49 515.437L1084.16 508.614H1111.84L1086.26 540L1097.7 510.98L1101.84 518.164H1077.68L1079.83 511.341L1091.78 473.36L1110.46 482.198L1105.43 489.81Z" fill="url(#paint6_linear_545_2328)" fill-opacity="0.5"/>
<circle cx="1095.04" cy="503.04" r="33.04" fill="url(#paint7_radial_545_2328)" fill-opacity="0.3"/>
<path d="M1147.94 641C1147.94 645.723 1146.34 650.308 1143.4 654H557.978C555.417 649.726 554.464 644.679 555.289 639.765C556.115 634.851 558.664 630.392 562.481 627.188C566.297 623.985 571.131 622.247 576.113 622.285C581.096 622.324 585.902 624.138 589.668 627.4C593.718 623.367 598.75 620.462 604.268 618.97C603.96 616.908 603.806 614.826 603.808 612.74C603.819 603.804 606.722 595.11 612.084 587.96C617.446 580.811 624.977 575.588 633.553 573.074C642.129 570.56 651.288 570.889 659.662 574.012C668.035 577.135 675.173 582.884 680.008 590.4C683.068 587.249 686.731 584.746 690.778 583.041C694.826 581.335 699.175 580.461 703.568 580.47H704.398C703.016 572.417 703.41 564.159 705.551 556.273C707.692 548.388 711.53 541.065 716.795 534.816C722.061 528.568 728.627 523.545 736.036 520.098C743.445 516.651 751.517 514.864 759.688 514.86C761.378 514.86 763.088 514.94 764.688 515.08C770.526 498.749 781.699 484.862 796.403 475.663C811.106 466.464 828.481 462.49 845.721 464.382C862.961 466.275 879.06 473.923 891.418 486.092C903.776 498.262 911.671 514.241 913.828 531.45C916.441 530.947 919.096 530.693 921.758 530.69C930.862 530.671 939.716 533.667 946.938 539.21C954.678 533.962 963.606 530.73 972.912 529.808C982.218 528.887 991.607 530.304 1000.23 533.932C1008.84 537.56 1016.42 543.284 1022.27 550.583C1028.11 557.883 1032.04 566.527 1033.7 575.73C1040.4 572.385 1047.88 570.922 1055.35 571.499C1062.82 572.075 1069.99 574.669 1076.1 579.002C1082.2 583.336 1087.02 589.248 1090.03 596.106C1093.04 602.964 1094.13 610.511 1093.19 617.94C1094.05 617.844 1094.91 617.797 1095.78 617.8C1099.03 617.802 1102.25 618.472 1105.24 619.769C1108.22 621.066 1110.91 622.962 1113.13 625.34C1116.16 622.691 1119.89 620.969 1123.87 620.379C1127.85 619.789 1131.92 620.356 1135.59 622.012C1139.26 623.668 1142.37 626.345 1144.56 629.722C1146.76 633.099 1147.93 637.035 1147.95 641.06L1147.94 641Z" fill="url(#paint8_linear_545_2328)"/>
<path opacity="0.8" d="M1332.18 644.4H1147.67C1148.39 639.864 1147.6 635.217 1145.42 631.174C1143.24 627.131 1139.79 623.918 1135.61 622.03C1131.93 620.372 1127.86 619.807 1123.87 620.402C1119.88 620.998 1116.15 622.73 1113.12 625.39C1110.9 623.012 1108.21 621.116 1105.22 619.819C1102.24 618.522 1099.02 617.852 1095.77 617.85C1094.9 617.847 1094.04 617.894 1093.18 617.99C1093.92 612.19 1093.41 606.298 1091.69 600.71C1090.84 597.928 1089.69 595.246 1088.27 592.71C1084.83 586.569 1079.89 581.406 1073.91 577.71C1071.85 576.443 1069.7 575.356 1067.46 574.46C1068.27 574.03 1069.11 573.64 1069.96 573.28C1075.07 571.129 1080.64 570.287 1086.16 570.83C1091.68 571.373 1096.97 573.284 1101.57 576.39C1105.85 573.116 1111.1 571.357 1116.5 571.39C1118.07 571.39 1119.65 571.54 1121.2 571.84C1122.48 561.641 1127.16 552.171 1134.49 544.96C1141.81 537.749 1151.36 533.217 1161.57 532.096C1171.79 530.975 1182.09 533.33 1190.8 538.781C1199.52 544.232 1206.14 552.461 1209.61 562.14C1210.61 562.05 1211.61 562 1212.61 562C1217.45 561.996 1222.23 563.048 1226.62 565.083C1231.01 567.119 1234.9 570.088 1238.02 573.784C1241.15 577.48 1243.43 581.813 1244.7 586.481C1245.98 591.149 1246.22 596.039 1245.41 600.81C1245.41 600.84 1245.41 600.87 1245.41 600.9H1245.83C1248.44 600.892 1251.02 601.409 1253.43 602.421C1255.83 603.433 1258.01 604.919 1259.83 606.79C1261.29 604.497 1263.13 602.468 1265.28 600.79C1269.61 597.371 1274.97 595.511 1280.49 595.511C1286.01 595.511 1291.36 597.371 1295.7 600.79C1299.09 603.473 1301.71 607.007 1303.29 611.031C1304.87 615.055 1305.35 619.427 1304.7 623.7C1307.97 624.58 1310.96 626.304 1313.36 628.7C1315.02 627.24 1317.04 626.25 1319.21 625.829C1321.38 625.409 1323.62 625.575 1325.7 626.309C1327.79 627.043 1329.64 628.32 1331.07 630.007C1332.5 631.695 1333.45 633.732 1333.83 635.91C1334.32 638.846 1333.73 641.861 1332.18 644.4Z" fill="url(#paint9_linear_545_2328)"/>
<path opacity="0.8" d="M780.118 489.34C773.34 496.83 768.101 505.579 764.698 515.09C763.088 514.95 761.378 514.87 759.698 514.87C751.523 514.861 743.445 516.641 736.031 520.084C728.616 523.527 722.044 528.55 716.776 534.801C711.508 541.053 707.671 548.381 705.535 556.272C703.398 564.162 703.014 572.425 704.408 580.48H703.578C699.185 580.468 694.834 581.34 690.785 583.044C686.735 584.748 683.07 587.25 680.008 590.4C676.018 584.193 670.442 579.165 663.856 575.837C657.27 572.509 649.915 571.001 642.551 571.47C635.187 571.94 628.082 574.368 621.972 578.505C615.862 582.642 610.968 588.337 607.798 595H574.338C572.778 593.05 571.843 590.674 571.656 588.183C571.469 585.692 572.038 583.203 573.29 581.041C574.542 578.879 576.417 577.146 578.67 576.068C580.923 574.99 583.45 574.618 585.918 575C588.286 575.367 590.498 576.408 592.288 578C593.607 576.592 595.2 575.468 596.97 574.699C598.74 573.931 600.649 573.533 602.578 573.53C603.089 573.53 603.6 573.56 604.108 573.62C603.98 572.589 603.916 571.55 603.918 570.51C603.934 566.339 605.012 562.241 607.049 558.602C609.087 554.963 612.017 551.902 615.565 549.708C619.112 547.515 623.159 546.26 627.325 546.063C631.492 545.865 635.639 546.732 639.378 548.58C640.367 543.126 642.701 538.005 646.169 533.682C649.638 529.358 654.13 525.968 659.239 523.819C664.349 521.67 669.913 520.83 675.429 521.375C680.945 521.92 686.238 523.833 690.828 526.94C695.118 523.675 700.367 521.917 705.758 521.94C707.339 521.94 708.916 522.091 710.468 522.39C711.437 514.778 714.305 507.532 718.81 501.32C723.314 495.108 729.309 490.129 736.243 486.842C743.177 483.555 750.826 482.065 758.486 482.511C766.147 482.956 773.572 485.322 780.078 489.39L780.118 489.34Z" fill="url(#paint10_linear_545_2328)"/>
<path d="M1362.75 600.66H1295.69C1291.36 597.239 1286 595.378 1280.48 595.378C1274.96 595.378 1269.6 597.239 1265.27 600.66H1245.38C1246.18 595.891 1245.93 591.004 1244.65 586.34C1243.38 581.675 1241.1 577.346 1237.97 573.652C1234.85 569.958 1230.96 566.989 1226.58 564.951C1222.19 562.913 1217.41 561.855 1212.58 561.85C1211.58 561.85 1210.58 561.85 1209.58 561.99C1206.11 552.312 1199.49 544.083 1190.78 538.632C1182.06 533.18 1171.76 530.825 1161.54 531.946C1151.33 533.068 1141.78 537.599 1134.46 544.811C1127.13 552.022 1122.45 561.491 1121.17 571.69C1119.62 571.391 1118.05 571.24 1116.47 571.24C1111.07 571.208 1105.82 572.966 1101.54 576.24C1096.94 573.135 1091.65 571.224 1086.13 570.681C1080.61 570.138 1075.04 570.98 1069.93 573.13C1069.08 573.49 1068.24 573.88 1067.43 574.31C1062.02 572.155 1056.22 571.163 1050.4 571.399C1044.58 571.635 1038.88 573.094 1033.66 575.68C1031.32 562.731 1024.51 551.014 1014.41 542.575C1004.32 534.136 991.577 529.512 978.418 529.51C980.561 523.619 983.899 518.233 988.222 513.692C992.544 509.151 997.759 505.552 1003.54 503.12C1010.54 500.176 1018.17 499.025 1025.73 499.772C1033.28 500.52 1040.54 503.142 1046.83 507.4C1052.69 502.902 1059.88 500.469 1067.28 500.48C1069.44 500.482 1071.6 500.69 1073.73 501.1C1075.5 487.141 1081.92 474.185 1091.96 464.321C1102 454.457 1115.06 448.259 1129.05 446.728C1143.04 445.196 1157.14 448.419 1169.07 455.878C1181 463.336 1190.08 474.595 1194.83 487.84C1196.14 487.72 1197.53 487.66 1198.9 487.66C1205.54 487.651 1212.1 489.094 1218.13 491.89C1224.15 494.685 1229.49 498.765 1233.77 503.842C1238.05 508.92 1241.17 514.873 1242.91 521.283C1244.65 527.693 1244.96 534.406 1243.83 540.95H1244.5C1248.06 540.943 1251.6 541.653 1254.88 543.038C1258.17 544.423 1261.14 546.454 1263.63 549.01C1267.55 542.895 1273.34 538.215 1280.14 535.67C1286.95 533.124 1294.39 532.852 1301.36 534.892C1308.33 536.933 1314.45 541.177 1318.81 546.989C1323.16 552.801 1325.52 559.868 1325.52 567.13C1325.52 568.824 1325.4 570.515 1325.15 572.19C1329.63 573.401 1333.72 575.759 1337.01 579.03C1340.06 576.347 1343.98 574.846 1348.04 574.802C1352.11 574.758 1356.06 576.172 1359.17 578.788C1362.28 581.405 1364.35 585.05 1365.01 589.063C1365.66 593.076 1364.86 597.19 1362.74 600.66H1362.75Z" fill="url(#paint11_linear_545_2328)"/>
<path d="M1095.17 461.4C1094.05 462.34 1092.98 463.34 1091.94 464.4C1081.91 474.266 1075.51 487.23 1073.77 501.19C1071.64 500.779 1069.48 500.572 1067.32 500.57C1059.92 500.524 1052.72 502.925 1046.83 507.4C1040.86 503.37 1034.03 500.804 1026.89 499.91C1025.51 495.473 1023.22 491.373 1020.17 487.874C1017.11 484.375 1013.36 481.553 1009.15 479.59C1004.76 477.556 999.983 476.495 995.147 476.48C994.147 476.48 993.147 476.53 992.147 476.61C990.685 472.492 988.626 468.611 986.037 465.09C987.518 455 992.329 445.695 999.705 438.653C1007.08 431.611 1016.6 427.237 1026.75 426.226C1036.89 425.214 1047.09 427.624 1055.71 433.071C1064.33 438.518 1070.88 446.691 1074.33 456.29C1075.33 456.2 1076.33 456.15 1077.33 456.15C1083.65 456.166 1089.84 457.968 1095.18 461.35L1095.17 461.4Z" fill="url(#paint12_linear_545_2328)"/>
<path d="M1026.93 499.941L1025.77 499.811C1018.21 499.064 1010.58 500.217 1003.58 503.165C996.581 506.113 990.427 510.762 985.678 516.691C982.579 520.555 980.136 524.903 978.448 529.561C976.598 529.561 974.758 529.651 972.918 529.831C967.344 530.381 961.883 531.763 956.718 533.931C953.282 535.348 950.001 537.118 946.928 539.211C939.706 533.669 930.852 530.673 921.748 530.691C919.087 530.698 916.433 530.953 913.818 531.451C911.719 514.608 904.098 498.935 892.148 486.881C894.392 486.217 896.719 485.881 899.058 485.881C900.636 485.88 902.21 486.031 903.758 486.331C905.049 476.138 909.736 466.676 917.061 459.472C924.387 452.267 933.925 447.74 944.139 446.62C954.352 445.499 964.645 447.851 973.358 453.295C982.072 458.74 988.698 466.96 992.168 476.631C993.168 476.551 994.168 476.501 995.168 476.501C1000.02 476.51 1004.81 477.58 1009.2 479.636C1013.59 481.691 1017.48 484.683 1020.6 488.401C1023.46 491.786 1025.61 495.71 1026.93 499.941Z" fill="url(#paint13_linear_545_2328)"/>
<path d="M916.677 459.851C909.557 467.007 905.012 476.324 903.757 486.341C902.208 486.041 900.634 485.89 899.057 485.891C896.717 485.89 894.39 486.227 892.147 486.891L891.437 486.171C884.021 478.877 875.208 473.158 865.527 469.355C855.846 465.553 845.496 463.745 835.099 464.042C824.702 464.34 814.473 466.734 805.024 471.083C795.576 475.432 787.104 481.646 780.117 489.351H780.067C774.356 485.783 767.929 483.519 761.243 482.72C754.557 481.922 747.777 482.608 741.387 484.731C742.539 482.103 744.032 479.639 745.827 477.401C751.065 470.87 758.569 466.549 766.847 465.296C775.125 464.044 783.571 465.952 790.507 470.641C794.788 467.353 800.039 465.577 805.437 465.591C807.014 465.591 808.588 465.741 810.137 466.041C811.428 455.847 816.114 446.386 823.44 439.182C830.765 431.977 840.304 427.45 850.517 426.329C860.73 425.209 871.023 427.56 879.737 433.005C888.45 438.45 895.076 446.67 898.547 456.341C899.547 456.251 900.547 456.201 901.547 456.201C906.384 456.213 911.161 457.278 915.547 459.321C915.937 459.471 916.307 459.661 916.677 459.851Z" fill="url(#paint14_linear_545_2328)"/>
</g>
<defs>
<radialGradient id="paint0_radial_545_2328" cx="0" cy="0" r="1" gradientUnits="userSpaceOnUse" gradientTransform="translate(958.5 558.5) rotate(90) scale(168.5 351.5)">
<stop stop-color="#FFC200" stop-opacity="0.45"/>
<stop offset="0.192708" stop-color="#FFC200" stop-opacity="0.222656"/>
<stop offset="1" stop-color="#FFC200" stop-opacity="0"/>
</radialGradient>
<linearGradient id="paint1_linear_545_2328" x1="733.5" y1="683.975" x2="733.5" y2="598.872" gradientUnits="userSpaceOnUse">
<stop stop-color="#D8AE29"/>
<stop offset="0.679508" stop-color="#D8AE29" stop-opacity="0.83"/>
<stop offset="1" stop-color="#D8AE29" stop-opacity="0"/>
</linearGradient>
<linearGradient id="paint2_linear_545_2328" x1="1207.5" y1="690.975" x2="1207.5" y2="605.872" gradientUnits="userSpaceOnUse">
<stop stop-color="#D8AE29"/>
<stop offset="0.679508" stop-color="#D8AE29" stop-opacity="0.83"/>
<stop offset="1" stop-color="#D8AE29" stop-opacity="0"/>
</linearGradient>
<linearGradient id="paint3_linear_545_2328" x1="958.5" y1="726.965" x2="958.5" y2="605.267" gradientUnits="userSpaceOnUse">
<stop stop-color="#D8AE29"/>
<stop offset="0.679508" stop-color="#D8AE29" stop-opacity="0.83"/>
<stop offset="1" stop-color="#D8AE29" stop-opacity="0"/>
</linearGradient>
<linearGradient id="paint4_linear_545_2328" x1="859.5" y1="597.971" x2="859.5" y2="496.698" gradientUnits="userSpaceOnUse">
<stop stop-color="#D8AE29"/>
<stop offset="0.679508" stop-color="#D8AE29" stop-opacity="0.83"/>
<stop offset="1" stop-color="#D8AE29" stop-opacity="0"/>
</linearGradient>
<radialGradient id="paint5_radial_545_2328" cx="0" cy="0" r="1" gradientUnits="userSpaceOnUse" gradientTransform="translate(860 532) rotate(90) scale(59)">
<stop stop-color="#FFC200" stop-opacity="0.45"/>
<stop offset="1" stop-color="#FFC200" stop-opacity="0"/>
</radialGradient>
<linearGradient id="paint6_linear_545_2328" x1="1094.76" y1="539.984" x2="1094.76" y2="483.271" gradientUnits="userSpaceOnUse">
<stop stop-color="#D8AE29"/>
<stop offset="0.679508" stop-color="#D8AE29" stop-opacity="0.83"/>
<stop offset="1" stop-color="#D8AE29" stop-opacity="0"/>
</linearGradient>
<radialGradient id="paint7_radial_545_2328" cx="0" cy="0" r="1" gradientUnits="userSpaceOnUse" gradientTransform="translate(1095.04 503.04) rotate(90) scale(33.04)">
<stop stop-color="#FFC200" stop-opacity="0.45"/>
<stop offset="1" stop-color="#FFC200" stop-opacity="0"/>
</radialGradient>
<linearGradient id="paint8_linear_545_2328" x1="851.438" y1="431.42" x2="851.438" y2="647.5" gradientUnits="userSpaceOnUse">
<stop stop-color="#3D3C3C"/>
<stop offset="1" stop-color="#4E4E4E" stop-opacity="0"/>
</linearGradient>
<linearGradient id="paint9_linear_545_2328" x1="1201" y1="644" x2="1201" y2="525" gradientUnits="userSpaceOnUse">
<stop stop-color="#777777" stop-opacity="0"/>
<stop offset="1" stop-color="#454545"/>
</linearGradient>
<linearGradient id="paint10_linear_545_2328" x1="676.001" y1="595" x2="723.001" y2="482" gradientUnits="userSpaceOnUse">
<stop stop-color="#727272" stop-opacity="0"/>
<stop offset="1" stop-color="#3F3F3F"/>
</linearGradient>
<linearGradient id="paint11_linear_545_2328" x1="1201" y1="582" x2="1171.84" y2="451.64" gradientUnits="userSpaceOnUse">
<stop stop-color="#3D3D3D" stop-opacity="0"/>
<stop offset="1" stop-color="#353535"/>
</linearGradient>
<linearGradient id="paint12_linear_545_2328" x1="1040.62" y1="521.39" x2="1040.62" y2="428.82" gradientUnits="userSpaceOnUse">
<stop stop-color="#4F4F4F" stop-opacity="0"/>
<stop offset="1" stop-color="#494949"/>
</linearGradient>
<linearGradient id="paint13_linear_545_2328" x1="959.538" y1="555.141" x2="959.538" y2="449.541" gradientUnits="userSpaceOnUse">
<stop stop-color="#6C6C6C" stop-opacity="0"/>
<stop offset="1" stop-color="#353535"/>
</linearGradient>
<linearGradient id="paint14_linear_545_2328" x1="829" y1="513" x2="829" y2="413.5" gradientUnits="userSpaceOnUse">
<stop stop-color="#808080" stop-opacity="0"/>
<stop offset="1" stop-color="#414141"/>
</linearGradient>
<clipPath id="clip0_545_2328">
<rect width="1920" height="1080" fill="white"/>
</clipPath>
</defs>
</svg>
